
    <svg width="200" height="50" viewBox="0 0 200 50" xmlns="http://www.w3.org/2000/svg">
      <style>
  .header { font: 600 18px 'Segoe UI', Ubuntu, Sans-Serif; fill: #d4a373; }
  .stat { font: 600 14px 'Segoe UI', Ubuntu, Sans-Serif; fill: #e8e4dc; }
  .label { font: 400 12px 'Segoe UI', Ubuntu, Sans-Serif; fill: #a8a29e; }
  .rank-text { font: 800 24px 'Segoe UI', Ubuntu, Sans-Serif; dominant-baseline: central; }
  .card-bg { fill: #1c1917; stroke: #44403c; stroke-width: 2px; }
 .btn-text { font: 600 16px 'Segoe UI', Ubuntu, Sans-Serif; fill: #e8e4dc; dominant-baseline: central; }</style>
      <rect x="2" y="2" rx="8" height="46" width="196" class="card-bg" />
      
      <g transform="translate(25, 13)">
        <svg width="24" height="24" viewBox="0 0 24 24" fill="#e8e4dc">
           <path d="M20.216 6.426l-1.29-3.328a3.174 3.174 0 0 0-3.17-2.098H8.244a3.175 3.175 0 0 0-3.17 2.099L3.784 6.425C1.56 7.425.074 9.613.074 12.046c0 3.328 2.395 6.132 5.568 6.837.29 2.455 1.517 6.64 4.542 6.666h.142c.866 0 1.637-.23 2.277-.63l.797-.502.797.502c.64.4 1.411.63 2.278.63h.142c3.024-.025 4.25-4.21 4.542-6.666 3.173-.705 5.568-3.51 5.568-6.837 0-2.433-1.485-4.621-3.71-5.62ZM8.67 3.5h6.66l.89 2.3H7.78l.89-2.3Zm-3.1 3.8h12.86c2.4 0 4.14 1.96 3.91 4.34-.14 1.5-.96 2.8-2.22 3.63-.3.2-.6.4-.9.6l-.37.25c-.24.16-.48.33-.71.5-.1.08-.2.15-.31.23-.21.16-.41.31-.61.46-.22.18-.45.35-.67.52-.39.29-.78.58-1.16.85l-.23.23c-.31.31-.63.63-.95.95l-.17.17c-.31.31-.62.61-.93.91l-.11.11a22.25 22.25 0 0 1-2.9 2.3h-.02a22.37 22.37 0 0 1-2.9-2.3l-.11-.11c-.31-.3-.62-.6-.93-.91l-.17-.17c-.32-.32-.64-.64-.95-.95l-.23-.23c-.38-.27-.77-.56-1.16-.85-.23-.17-.45-.34-.67-.52l-.61-.46c-.11-.08-.21-.15-.31-.23-.23-.17-.47-.34-.71-.5l-.37-.25c-.3-.2-.6-.4-.9-.6-1.26-.83-2.08-2.13-2.22-3.63-.23-2.38 1.51-4.34 3.91-4.34Z" />
        </svg>
      </g>
      
      <text x="60" y="25" class="btn-text">
        Buy me a coffee
      </text>
    </svg>
  