
    <svg width="450" height="280" viewBox="0 0 450 280" xmlns="http://www.w3.org/2000/svg">
      <style>
  .header { font: 600 18px 'Segoe UI', Ubuntu, Sans-Serif; fill: #d4a373; }
  .stat { font: 600 14px 'Segoe UI', Ubuntu, Sans-Serif; fill: #e8e4dc; }
  .label { font: 400 12px 'Segoe UI', Ubuntu, Sans-Serif; fill: #a8a29e; }
  .rank-text { font: 800 24px 'Segoe UI', Ubuntu, Sans-Serif; dominant-baseline: central; }
  .card-bg { fill: #1c1917; stroke: #44403c; stroke-width: 2px; }
</style>
      <rect x="2" y="2" rx="10" height="276" width="446" class="card-bg" />
      <text x="25" y="35" class="header">Top Repositories</text>
      
    <g transform="translate(25, 75)">
      <text x="0" y="0" class="stat" style="font-size: 14px; fill: #d4a373;">worther</text>
      <text x="0" y="20" class="label" style="font-size: 11px; fill: #a8a29e;">Weather web application with real-time forecasts, ...</text>
      <circle cx="280" cy="-4" r="5" fill="#f1e05a" />
      <text x="295" y="0" class="label">JavaScript</text>
      <text x="380" y="0" class="stat">⭐ 1</text>
    </g>
  
    <g transform="translate(25, 117)">
      <text x="0" y="0" class="stat" style="font-size: 14px; fill: #d4a373;">homebrew-fladder</text>
      <text x="0" y="20" class="label" style="font-size: 11px; fill: #a8a29e;">Homebrew tap for Fladder</text>
      <circle cx="280" cy="-4" r="5" fill="#701516" />
      <text x="295" y="0" class="label">Ruby</text>
      <text x="380" y="0" class="stat">⭐ 1</text>
    </g>
  
    <g transform="translate(25, 159)">
      <text x="0" y="0" class="stat" style="font-size: 14px; fill: #d4a373;">vikingnope</text>
      <text x="0" y="20" class="label" style="font-size: 11px; fill: #a8a29e;">Readme file for profile</text>
      <circle cx="280" cy="-4" r="5" fill="#f1e05a" />
      <text x="295" y="0" class="label">JavaScript</text>
      <text x="380" y="0" class="stat">⭐ 0</text>
    </g>
  
    <g transform="translate(25, 201)">
      <text x="0" y="0" class="stat" style="font-size: 14px; fill: #d4a373;">C-Project</text>
      <text x="0" y="20" class="label" style="font-size: 11px; fill: #a8a29e;">University Assignment - CPS1011</text>
      <circle cx="280" cy="-4" r="5" fill="#555555" />
      <text x="295" y="0" class="label">C</text>
      <text x="380" y="0" class="stat">⭐ 0</text>
    </g>
  
    <g transform="translate(25, 243)">
      <text x="0" y="0" class="stat" style="font-size: 14px; fill: #d4a373;">LMML-MSFS</text>
      <text x="0" y="20" class="label" style="font-size: 11px; fill: #a8a29e;">LMML Malta International Airport for Microsoft Fli...</text>
      <circle cx="280" cy="-4" r="5" fill="#3572A5" />
      <text x="295" y="0" class="label">Python</text>
      <text x="380" y="0" class="stat">⭐ 0</text>
    </g>
  
    </svg>
  