
    <svg width="450" height="215" viewBox="0 0 450 215" xmlns="http://www.w3.org/2000/svg">
      <style>
  .header { font: 600 18px 'Segoe UI', Ubuntu, Sans-Serif; fill: #d4a373; }
  .stat { font: 600 14px 'Segoe UI', Ubuntu, Sans-Serif; fill: #e8e4dc; }
  .label { font: 400 12px 'Segoe UI', Ubuntu, Sans-Serif; fill: #a8a29e; }
  .rank-text { font: 800 24px 'Segoe UI', Ubuntu, Sans-Serif; dominant-baseline: central; }
  .card-bg { fill: #1c1917; stroke: #44403c; stroke-width: 2px; }
</style>
      <rect x="2" y="2" rx="10" height="211" width="446" class="card-bg" />
      <text x="25" y="35" class="header">Top Languages</text>
      
      
          <g transform="translate(25, 65)">
            <text x="0" y="10" class="label" style="fill: #e8e4dc; font-size: 13px; font-weight: 600;">JavaScript</text>
            <rect x="100" y="2" width="240" height="8" rx="4" fill="#2d2b28" />
            <rect x="100" y="2" width="197.2305754466419" height="8" rx="4" fill="#f1e05a" />
            <text x="355" y="10" class="stat" style="font-size: 12px;">82.2%</text>
          </g>
        
          <g transform="translate(25, 89)">
            <text x="0" y="10" class="label" style="fill: #e8e4dc; font-size: 13px; font-weight: 600;">C</text>
            <rect x="100" y="2" width="240" height="8" rx="4" fill="#2d2b28" />
            <rect x="100" y="2" width="30.674458381806424" height="8" rx="4" fill="#555555" />
            <text x="355" y="10" class="stat" style="font-size: 12px;">12.8%</text>
          </g>
        
          <g transform="translate(25, 113)">
            <text x="0" y="10" class="label" style="fill: #e8e4dc; font-size: 13px; font-weight: 600;">CSS</text>
            <rect x="100" y="2" width="240" height="8" rx="4" fill="#2d2b28" />
            <rect x="100" y="2" width="10" height="8" rx="4" fill="#663399" />
            <text x="355" y="10" class="stat" style="font-size: 12px;">2.0%</text>
          </g>
        
          <g transform="translate(25, 137)">
            <text x="0" y="10" class="label" style="fill: #e8e4dc; font-size: 13px; font-weight: 600;">HTML</text>
            <rect x="100" y="2" width="240" height="8" rx="4" fill="#2d2b28" />
            <rect x="100" y="2" width="10" height="8" rx="4" fill="#e34c26" />
            <text x="355" y="10" class="stat" style="font-size: 12px;">1.4%</text>
          </g>
        
          <g transform="translate(25, 161)">
            <text x="0" y="10" class="label" style="fill: #e8e4dc; font-size: 13px; font-weight: 600;">CMake</text>
            <rect x="100" y="2" width="240" height="8" rx="4" fill="#2d2b28" />
            <rect x="100" y="2" width="10" height="8" rx="4" fill="#DA3434" />
            <text x="355" y="10" class="stat" style="font-size: 12px;">1.1%</text>
          </g>
        
          <g transform="translate(25, 185)">
            <text x="0" y="10" class="label" style="fill: #e8e4dc; font-size: 13px; font-weight: 600;">Python</text>
            <rect x="100" y="2" width="240" height="8" rx="4" fill="#2d2b28" />
            <rect x="100" y="2" width="10" height="8" rx="4" fill="#3572A5" />
            <text x="355" y="10" class="stat" style="font-size: 12px;">0.5%</text>
          </g>
        
    </svg>
  